<?xml version="1.0" standalone="no"?>
<!DOCTYPE svg PUBLIC "-//W3C//DTD SVG 20010904//EN"
 "http://www.w3.org/TR/2001/REC-SVG-20010904/DTD/svg10.dtd">
<svg version="1.0" xmlns="http://www.w3.org/2000/svg"
 width="64.000000pt" height="64.000000pt" viewBox="0 0 64.000000 64.000000"
 preserveAspectRatio="xMidYMid meet">

<g transform="translate(0.000000,64.000000) scale(0.100000,-0.100000)"
fill="#fff" stroke="none">
<path d="M17 542 c-15 -16 -17 -47 -17 -224 0 -186 2 -206 18 -221 16 -15 52
-17 304 -17 263 0 286 1 301 18 15 16 17 47 17 224 0 186 -2 206 -18 221 -16
15 -52 17 -304 17 -263 0 -286 -1 -301 -18z m430 -139 l-127 -128 -127 128
-128 127 255 0 255 0 -128 -127z m-320 -170 l-87 -88 0 175 0 175 87 -88 88
-87 -88 -87z m473 85 l0 -173 -87 87 -88 88 85 85 c46 47 86 85 87 85 2 0 3
-78 3 -172z m-280 -88 c8 0 28 13 45 30 l31 30 89 -90 90 -90 -255 0 -255 0
90 90 89 90 31 -30 c17 -17 37 -30 45 -30z"/>
</g>
</svg>
